HIERARCHY
ROOT Hips
{
    OFFSET 0.000000 0.000000 0.000000
    CHANNELS 6 Xposition Yposition Zposition Zrotation Xrotation Yrotation
    JOINT Spine
    {
        OFFSET -0.000000 7.810951 0.000000
        CHANNELS 3 Zrotation Xrotation Yrotation
        JOINT Spine1
        {
            OFFSET -0.000000 18.868288 0.000000
            CHANNELS 3 Zrotation Xrotation Yrotation
            JOINT Neck
            {
                OFFSET -0.000000 18.790800 1.708255
                CHANNELS 3 Zrotation Xrotation Yrotation
                JOINT Head
                {
                    OFFSET -0.000000 13.335769 -1.905110
                    CHANNELS 3 Zrotation Xrotation Yrotation
                    End Site
                    {
                        OFFSET -0.000000 23.813873 0.000000
                    }
                }
            }
            JOINT LeftShoulder
            {
                OFFSET 3.868973 15.461964 -0.252686
                CHANNELS 3 Zrotation Xrotation Yrotation
                JOINT LeftArm
                {
                    OFFSET 15.258958 0.000000 0.000000
                    CHANNELS 3 Zrotation Xrotation Yrotation
                    JOINT LeftForeArm
                    {
                        OFFSET 27.600050 0.000000 0.000000
                        CHANNELS 3 Zrotation Xrotation Yrotation
                        JOINT LeftHand
                        {
                            OFFSET 23.737446 0.000000 0.000000
                            CHANNELS 3 Zrotation Xrotation Yrotation
                            End Site
                            {
                                OFFSET 14.288324 0.000000 0.000000
                            }
                        }
                    }
                }
            }
            JOINT RightShoulder
            {
                OFFSET -3.750262 15.461964 -0.252686
                CHANNELS 3 Zrotation Xrotation Yrotation
                JOINT RightArm
                {
                    OFFSET -15.258958 0.000000 0.000000
                    CHANNELS 3 Zrotation Xrotation Yrotation
                    JOINT RightForeArm
                    {
                        OFFSET -27.600050 0.000000 0.000000
                        CHANNELS 3 Zrotation Xrotation Yrotation
                        JOINT RightHand
                        {
                            OFFSET -23.737446 0.000000 0.000000
                            CHANNELS 3 Zrotation Xrotation Yrotation
                            End Site
                            {
                                OFFSET -14.288324 0.000000 0.000000
                            }
                        }
                    }
                }
            }
        }
    }
    JOINT LeftUpLeg
    {
        OFFSET 9.525549 0.000000 0.000000
        CHANNELS 3 Zrotation Xrotation Yrotation
        JOINT LeftLeg
        {
            OFFSET -0.000000 -45.198063 0.000000
            CHANNELS 3 Zrotation Xrotation Yrotation
            JOINT LeftFoot
            {
                OFFSET -0.000000 -37.850700 0.000000
                CHANNELS 3 Zrotation Xrotation Yrotation
                JOINT LeftToeBase
                {
                    OFFSET -0.000000 -6.191607 14.288324
                    CHANNELS 3 Zrotation Xrotation Yrotation
                    End Site
                    {
                        OFFSET -0.000000 0.000000 3.810220
                    }
                }
            }
        }
    }
    JOINT RightUpLeg
    {
        OFFSET -9.525549 0.000000 0.000000
        CHANNELS 3 Zrotation Xrotation Yrotation
        JOINT RightLeg
        {
            OFFSET -0.000000 -45.198063 0.000000
            CHANNELS 3 Zrotation Xrotation Yrotation
            JOINT RightFoot
            {
                OFFSET -0.000000 -37.850700 0.000000
                CHANNELS 3 Zrotation Xrotation Yrotation
                JOINT RightToeBase
                {
                    OFFSET -0.000000 -6.191607 14.288324
                    CHANNELS 3 Zrotation Xrotation Yrotation
                    End Site
                    {
                        OFFSET -0.000000 0.000000 3.810220
                    }
                }
            }
        }
    }
}
MOTION
Frames:    13
Frame Time:    0.008333
-15.070602    90.922073    31.132751    0.482877    -4.566768    179.163040    0.439285    -12.044025    0.258866    -1.058166    6.899632    0.276333    6.779166    17.099140    10.747638    -6.770514    -8.960434    9.766926    7.064101    7.392017    -5.061941    -50.245865    31.904766    -41.883907    -49.677227    -15.140253    -82.193840    -4.320221    -54.016804    1.627540    -7.600220    -1.500924    6.853724    24.443602    39.008011    39.802490    -18.041754    -12.185419    105.914825    -30.521120    10.714596    5.170423    7.489749    -2.051263    6.000894    -0.897069    2.109235    4.788005    -6.622331    0.745015    22.211529    0.000000    0.000000    0.000000    1.840055    -0.429327    -2.676169    3.576393    2.411225    3.792522    -5.229032    -4.152255    -26.855701    0.000000    0.000000    0.000000    
-15.024389    90.917351    31.098902    0.453850    -4.513477    179.139557    0.446038    -12.042372    0.241803    -1.066764    6.919617    0.259558    6.732804    17.278755    10.711940    -6.727761    -9.243878    9.733906    7.012987    7.421383    -5.090869    -50.389572    31.556688    -41.951263    -49.770046    -14.969360    -82.167709    -4.339512    -53.965981    1.584055    -7.606547    -1.491444    6.838470    24.466129    38.601902    39.712128    -17.951410    -12.185000    106.097984    -30.440592    10.633714    5.323985    7.484936    -1.956565    5.968853    -0.892583    2.066610    4.803677    -6.684129    0.731900    22.294432    0.000000    0.000000    0.000000    1.835220    -0.358293    -2.693213    3.581108    2.419075    3.793385    -5.254990    -4.181471    -26.826296    0.000000    0.000000    0.000000    
-14.971152    90.912399    31.062258    0.432477    -4.465822    179.117142    0.445860    -12.020637    0.214141    -1.056668    6.833179    0.230601    6.357485    17.074944    10.778323    -6.038139    -8.896199    9.956230    6.941877    7.469556    -5.135051    -50.394020    31.462547    -41.943771    -49.678310    -14.900620    -82.463432    -4.360974    -54.025360    1.558740    -7.573507    -1.454123    6.897691    24.524078    38.255283    39.516438    -17.991879    -12.291939    106.085472    -30.515469    10.462021    5.738483    7.492465    -1.862908    5.912881    -0.887832    2.020323    4.836226    -6.736106    0.760914    22.342512    0.000000    0.000000    0.000000    1.849641    -0.295880    -2.723929    3.545143    2.419029    3.897628    -5.243726    -4.182428    -26.861601    0.000000    0.000000    0.000000    
-14.905143    90.908852    31.034588    0.420138    -4.451183    179.073502    0.439350    -12.052023    0.208830    -1.041196    6.853433    0.225085    6.688244    17.294134    10.739964    -6.616888    -9.174511    9.791929    6.938357    7.423747    -5.122478    -50.432186    31.475529    -41.993824    -49.532269    -14.867718    -82.866676    -4.292490    -54.124355    1.412944    -7.585758    -1.511574    6.873724    24.657314    37.910751    39.367275    -17.963932    -12.357648    106.115280    -30.828911    10.249446    6.120796    7.518780    -1.807267    5.928877    -0.883531    1.979437    4.840397    -6.723519    0.853959    22.346054    0.000000    0.000000    0.000000    1.877957    -0.277674    -2.687155    3.561612    2.446459    3.874113    -5.294870    -4.209189    -26.847305    0.000000    0.000000    0.000000    
-14.846951    90.894913    31.003279    0.378986    -4.471475    179.060532    0.404404    -12.151481    0.192319    -1.020397    6.955828    0.211246    6.716198    17.151999    10.713940    -6.611549    -9.050012    9.764154    6.946989    7.294694    -5.099287    -50.552616    31.220570    -42.121414    -49.637180    -14.673176    -82.949753    -4.712268    -54.123589    0.873689    -7.620250    -1.639844    6.777995    24.846102    37.546341    39.218380    -17.830973    -12.389587    106.134445    -31.100401    9.879496    6.646160    7.503499    -1.785377    5.902198    -0.867165    1.930613    4.885551    -6.787755    0.827333    22.397949    0.000000    0.000000    0.000000    1.867698    -0.301897    -2.704866    3.596038    2.520369    3.827975    -5.408026    -4.330020    -26.768215    0.000000    0.000000    0.000000    
-14.773142    90.870735    30.945604    0.396584    -4.492173    178.969574    0.441900    -12.338960    0.219009    -1.003234    7.134867    0.234043    6.684103    17.046627    10.719331    -6.516784    -8.976998    9.787453    6.945579    7.179139    -5.110631    -50.856281    30.875635    -42.088993    -49.662376    -14.387828    -83.034111    -4.892963    -54.013477    0.636548    -7.622355    -1.688938    6.725751    25.034925    37.016502    39.079708    -17.561535    -12.249269    106.242149    -31.528835    9.547997    7.061844    7.562397    -1.704419    6.023850    -0.857710    1.832162    4.914685    -6.797163    0.809556    22.351732    0.000000    0.000000    0.000000    1.938399    -0.300086    -2.613732    3.574828    2.541137    3.875746    -5.452252    -4.397156    -26.799793    0.000000    0.000000    0.000000    
-14.716069    90.865097    30.913109    0.347564    -4.477756    178.952194    0.439594    -12.381707    0.200201    -1.042663    7.183372    0.217980    6.661691    17.049406    10.718470    -6.444923    -9.044152    9.798464    6.958182    7.167475    -5.087503    -51.001492    30.590895    -42.190742    -49.493141    -14.165480    -83.354347    -4.647983    -53.945885    1.062913    -7.570732    -1.732569    6.675367    25.187153    36.508083    38.951218    -17.482029    -12.228962    106.222626    -31.733877    9.339971    7.398103    7.524185    -1.638117    6.024132    -0.818843    1.757388    4.983404    -6.834484    0.882743    22.335932    0.000000    0.000000    0.000000    1.922360    -0.286576    -2.672159    3.549563    2.572082    3.988882    -5.464246    -4.422350    -26.821857    0.000000    0.000000    0.000000    
-14.665983    90.855629    30.887825    0.298919    -4.466037    178.938995    0.446248    -12.397138    0.180725    -1.073754    7.204566    0.200454    6.568399    16.985975    10.708019    -6.266457    -9.043855    9.821757    6.941985    7.125225    -5.082077    -51.125645    30.350866    -42.288704    -49.251389    -13.890571    -83.655800    -3.682312    -53.782463    1.998452    -7.529413    -1.755182    6.605094    25.347815    35.913021    38.828842    -17.425411    -12.096637    106.247696    -32.213619    9.285939    7.698005    7.472836    -1.579028    6.040413    -0.753315    1.686399    4.999084    -6.895616    0.927207    22.336910    0.000000    0.000000    0.000000    1.885890    -0.290677    -2.650830    3.620461    2.664541    3.965239    -5.577954    -4.537404    -26.834135    0.000000    0.000000    0.000000    
-14.602736    90.852669    30.843014    0.246408    -4.420244    178.889069    0.407834    -12.394649    0.176172    -1.049772    7.197848    0.198525    6.341895    16.929237    10.672699    -5.891388    -9.042140    9.861631    6.914649    7.155687    -5.088150    -51.464928    29.857048    -42.384769    -49.143112    -13.604870    -83.664764    -3.770552    -53.529339    1.923528    -7.478565    -1.724888    6.536959    25.456707    35.349030    38.759804    -17.208458    -12.015548    106.269905    -32.761280    8.943656    8.005120    7.427709    -1.462391    6.140416    -0.699386    1.598671    5.018698    -6.960029    1.026299    22.302187    0.000000    0.000000    0.000000    1.876966    -0.211531    -2.616932    3.588660    2.665674    4.282446    -5.594882    -4.571429    -27.074829    0.000000    0.000000    0.000000    
-14.538402    90.847733    30.802818    0.225610    -4.370368    178.877579    0.413736    -12.389956    0.156736    -1.048927    7.197833    0.178005    6.394390    17.044430    10.662250    -5.987505    -9.204299    9.828900    6.899271    7.137625    -5.109104    -51.687687    29.521069    -42.474796    -48.863609    -13.339170    -83.916504    -3.075607    -53.304699    2.778101    -7.398303    -1.714842    6.493842    25.570951    34.754951    38.598602    -17.014603    -11.999106    106.317924    -33.166142    8.632318    8.159678    7.410639    -1.346362    6.135960    -0.637689    1.510738    5.053809    -7.024220    1.078785    22.311602    0.000000    0.000000    0.000000    1.900050    -0.164729    -2.548162    3.610634    2.742790    4.154588    -5.680532    -4.650039    -27.029291    0.000000    0.000000    0.000000    
-14.467737    90.839096    30.763519    0.210549    -4.313939    178.869553    0.414870    -12.372074    0.120217    -1.022380    7.204456    0.139851    6.586867    17.091011    10.703285    -6.303638    -9.187029    9.807748    6.854920    7.082869    -5.094472    -51.903984    29.212542    -42.463482    -48.591656    -13.042419    -84.208969    -3.040854    -53.086468    3.066128    -7.363647    -1.745096    6.502021    25.758804    34.226528    38.413673    -16.752689    -12.021564    106.389595    -33.469273    8.204524    8.307084    7.422274    -1.224713    6.027246    -0.622398    1.434539    5.051603    -7.051605    1.087306    22.466778    0.000000    0.000000    0.000000    1.950356    -0.076742    -2.600030    3.576065    2.718500    4.092208    -5.718003    -4.659733    -26.943514    0.000000    0.000000    0.000000    
-14.394367    90.827370    30.732819    0.204643    -4.280361    178.873322    0.424027    -12.380977    0.075586    -0.989255    7.241912    0.094469    6.615067    17.288696    10.684276    -6.475460    -9.517244    9.744840    6.842816    7.077171    -5.072849    -52.318508    28.679743    -42.546059    -48.389492    -12.791695    -84.276131    -3.582001    -52.818596    2.927503    -7.354141    -1.790484    6.518882    26.021870    33.568535    38.190380    -16.285357    -12.006235    106.542213    -33.244610    7.622033    8.380778    7.451106    -1.142025    5.903443    -0.610859    1.346463    5.350560    -7.088834    1.157635    22.309095    0.000000    0.000000    0.000000    1.996334    -0.037098    -2.673219    3.529824    2.710091    4.104359    -5.721224    -4.636197    -26.888241    0.000000    0.000000    0.000000    
-14.309980    90.815720    30.684126    0.195462    -4.228694    178.824127    0.408516    -12.427175    0.054286    -0.921688    7.349416    0.074277    6.445415    17.211037    10.703461    -6.250404    -9.548414    9.806615    6.811286    7.055295    -5.023736    -52.507507    28.345373    -42.681107    -47.979141    -12.423365    -84.604073    -2.460611    -52.456772    4.073112    -7.367355    -1.841656    6.505426    26.311806    32.981644    37.985085    -16.009808    -12.118809    106.636292    -33.190994    7.150657    8.421391    7.497649    -1.004887    5.779083    -0.644114    1.236596    5.558977    -7.082993    1.228985    22.314611    0.000000    0.000000    0.000000    2.044509    0.039941    -2.685115    3.571819    2.736117    3.961974    -5.800052    -4.706713    -26.796837    0.000000    0.000000    0.000000    
